<svg xmlns="http://www.w3.org/2000/svg" xmlns:xlink="http://www.w3.org/1999/xlink" width="500" zoomAndPan="magnify" viewBox="0 0 375 374.999991" height="500" preserveAspectRatio="xMidYMid meet" version="1.0"><defs><clipPath id="59466bb921"><path d="M 112.5 112.5 L 262.5 112.5 L 262.5 262.5 L 112.5 262.5 Z M 112.5 112.5 " clip-rule="nonzero"/></clipPath></defs><g clip-path="url(#59466bb921)"><path fill="#050a30" d="M 245.191406 147.117188 C 245.191406 147.117188 145.042969 147.117188 127.777344 147.117188 C 122.710938 147.117188 118.210938 146.101562 118.210938 141.347656 L 245.191406 135.578125 L 245.191406 124.039062 C 245.191406 114.484375 237.4375 112.5 227.882812 112.5 L 124.160156 129.808594 C 114.917969 131.863281 112.5 135.777344 112.5 141.347656 L 112.5 245.191406 C 112.5 254.746094 120.253906 262.5 129.808594 262.5 L 245.191406 262.5 C 254.746094 262.5 262.5 254.746094 262.5 245.191406 L 262.5 164.421875 C 262.5 154.871094 254.746094 147.117188 245.191406 147.117188 Z M 239.421875 216.347656 C 233.054688 216.347656 227.882812 211.175781 227.882812 204.808594 C 227.882812 198.4375 233.054688 193.269531 239.421875 193.269531 C 245.792969 193.269531 250.960938 198.4375 250.960938 204.808594 C 250.960938 211.175781 245.792969 216.347656 239.421875 216.347656 Z M 239.421875 216.347656 " fill-opacity="1" fill-rule="nonzero"/></g></svg>