<svg xmlns="http://www.w3.org/2000/svg" xmlns:xlink="http://www.w3.org/1999/xlink" width="500" zoomAndPan="magnify" viewBox="0 0 375 374.999991" height="500" preserveAspectRatio="xMidYMid meet" version="1.0"><defs><g/><clipPath id="1d63b94b67"><path d="M 129.519531 79.128906 L 245.769531 79.128906 L 245.769531 223.128906 L 129.519531 223.128906 Z M 129.519531 79.128906 " clip-rule="nonzero"/></clipPath></defs><path fill="#a4d1d8" d="M 176.023438 154.714844 L 187.644531 132.28125 L 187.644531 166.195312 Z M 176.023438 154.714844 " fill-opacity="1" fill-rule="evenodd"/><path fill="#050a30" d="M 199.265625 154.714844 L 187.644531 132.28125 L 187.644531 166.195312 Z M 199.265625 154.714844 " fill-opacity="1" fill-rule="evenodd"/><path fill="#a4d1d8" d="M 199.265625 177.675781 L 187.644531 200.109375 L 187.644531 166.195312 Z M 199.265625 177.675781 " fill-opacity="1" fill-rule="evenodd"/><path fill="#050a30" d="M 176.023438 177.675781 L 187.644531 200.109375 L 187.644531 166.195312 Z M 176.023438 177.675781 " fill-opacity="1" fill-rule="evenodd"/><path fill="#a4d1d8" d="M 199.167969 154.617188 L 221.6875 166.195312 L 187.644531 166.195312 Z M 199.167969 154.617188 " fill-opacity="1" fill-rule="evenodd"/><path fill="#050a30" d="M 199.167969 177.769531 L 221.6875 166.195312 L 187.644531 166.195312 Z M 199.167969 177.769531 " fill-opacity="1" fill-rule="evenodd"/><path fill="#a4d1d8" d="M 176.121094 177.769531 L 153.601562 166.195312 L 187.644531 166.195312 Z M 176.121094 177.769531 " fill-opacity="1" fill-rule="evenodd"/><path fill="#050a30" d="M 176.121094 154.617188 L 153.601562 166.195312 L 187.644531 166.195312 Z M 176.121094 154.617188 " fill-opacity="1" fill-rule="evenodd"/><path fill="#a4d1d8" d="M 215.757812 138.222656 L 215.875 138.101562 L 215.800781 138.144531 L 215.839844 138.070312 L 215.71875 138.183594 L 199.265625 146.878906 L 203.128906 150.730469 L 203.164062 150.765625 L 207.03125 154.617188 Z M 215.757812 138.222656 " fill-opacity="1" fill-rule="evenodd"/><path fill="#a4d1d8" d="M 158.554688 194.167969 L 158.4375 194.285156 L 158.515625 194.246094 L 158.472656 194.320312 L 158.589844 194.203125 L 175.046875 185.511719 L 171.183594 181.660156 L 171.144531 181.625 L 167.28125 177.769531 Z M 158.554688 194.167969 " fill-opacity="1" fill-rule="evenodd"/><path fill="#a4d1d8" d="M 215.234375 194.691406 L 215.351562 194.804688 L 215.3125 194.730469 L 215.386719 194.769531 L 215.269531 194.652344 L 206.542969 178.257812 L 202.679688 182.109375 L 202.644531 182.144531 L 198.777344 185.996094 Z M 215.234375 194.691406 " fill-opacity="1" fill-rule="evenodd"/><path fill="#a4d1d8" d="M 159.078125 137.699219 L 158.960938 137.582031 L 159 137.660156 L 158.925781 137.617188 L 159.042969 137.738281 L 167.769531 154.132812 L 171.632812 150.277344 L 171.667969 150.246094 L 175.535156 146.390625 Z M 159.078125 137.699219 " fill-opacity="1" fill-rule="evenodd"/><g clip-path="url(#1d63b94b67)"><path fill="#050a30" d="M 204.210938 213.457031 C 200.113281 214.886719 195.898438 215.730469 191.679688 216.042969 L 187.464844 209.417969 L 183.304688 215.964844 C 169.179688 214.667969 155.722656 207.535156 146.898438 196.03125 C 140.785156 188.0625 137.464844 178.683594 136.804688 169.125 L 143.058594 165.179688 L 136.863281 161.269531 C 137.585938 152.578125 140.484375 144.011719 145.484375 136.503906 C 154.117188 123.539062 168.445312 115.945312 183.496094 114.695312 L 187.464844 120.9375 L 191.476562 114.625 C 194.957031 114.859375 198.429688 115.429688 201.832031 116.363281 C 222.277344 121.964844 236.539062 140.425781 238.507812 160.992188 L 231.871094 165.179688 L 238.53125 169.382812 C 236.722656 189.367188 223.507812 206.710938 204.210938 213.457031 Z M 177.011719 97.238281 C 177.011719 91.390625 181.773438 86.644531 187.648438 86.644531 C 193.519531 86.644531 198.28125 91.390625 198.28125 97.238281 C 198.28125 102.160156 194.910156 106.296875 190.347656 107.488281 L 190.519531 107.496094 C 188.625 107.414062 186.722656 107.425781 184.824219 107.53125 L 185.0625 107.519531 C 180.4375 106.367188 177.011719 102.199219 177.011719 97.238281 Z M 190.535156 107.496094 C 190.84375 107.507812 191.15625 107.527344 191.464844 107.542969 C 191.15625 107.523438 190.84375 107.507812 190.535156 107.496094 Z M 191.5 107.546875 C 191.8125 107.5625 192.125 107.585938 192.4375 107.609375 Z M 192.445312 107.609375 C 192.753906 107.632812 193.0625 107.65625 193.371094 107.683594 C 193.0625 107.65625 192.757812 107.632812 192.445312 107.609375 Z M 193.40625 107.6875 C 193.710938 107.714844 194.015625 107.746094 194.316406 107.777344 C 194.015625 107.746094 193.710938 107.714844 193.40625 107.6875 Z M 194.367188 107.78125 C 194.671875 107.816406 194.976562 107.851562 195.28125 107.890625 C 194.976562 107.851562 194.671875 107.816406 194.367188 107.78125 Z M 195.292969 107.890625 C 195.605469 107.929688 195.917969 107.96875 196.226562 108.015625 C 195.917969 107.96875 195.605469 107.929688 195.292969 107.890625 Z M 196.238281 108.015625 C 196.542969 108.058594 196.84375 108.105469 197.148438 108.152344 C 196.84375 108.105469 196.542969 108.058594 196.238281 108.015625 Z M 197.195312 108.160156 C 197.492188 108.207031 197.789062 108.253906 198.089844 108.304688 C 197.789062 108.253906 197.492188 108.203125 197.195312 108.160156 Z M 198.152344 108.316406 C 198.449219 108.371094 198.75 108.425781 199.050781 108.480469 C 198.75 108.425781 198.449219 108.367188 198.152344 108.316406 Z M 199.070312 108.484375 C 199.375 108.542969 199.675781 108.605469 199.980469 108.667969 C 199.675781 108.605469 199.375 108.542969 199.070312 108.484375 Z M 200.023438 108.675781 C 200.316406 108.738281 200.613281 108.804688 200.90625 108.871094 C 200.613281 108.804688 200.316406 108.738281 200.023438 108.675781 Z M 200.960938 108.882812 L 201.453125 108.996094 C 204.167969 105.835938 205.808594 101.726562 205.808594 97.238281 C 205.808594 87.246094 197.675781 79.144531 187.644531 79.144531 C 177.613281 79.144531 169.480469 87.246094 169.480469 97.238281 C 169.480469 101.785156 171.160156 105.9375 173.9375 109.117188 L 174.355469 109.019531 C 168.761719 110.320312 163.339844 112.414062 158.308594 115.277344 C 140.441406 125.441406 129.761719 145.003906 129.519531 165.277344 C 129.28125 185.765625 140.875 204.839844 158.308594 215.28125 C 176.183594 225.980469 199.0625 225.46875 216.980469 215.28125 C 234.847656 205.117188 245.527344 185.550781 245.769531 165.277344 C 245.527344 144.65625 234.726562 125.902344 216.980469 115.277344 C 211.960938 112.273438 206.546875 110.152344 200.960938 108.882812 Z M 174.402344 109.007812 C 174.703125 108.9375 175.003906 108.871094 175.304688 108.804688 C 175.003906 108.871094 174.703125 108.9375 174.402344 109.007812 Z M 175.328125 108.796875 C 175.628906 108.734375 175.925781 108.671875 176.226562 108.613281 C 175.929688 108.671875 175.628906 108.734375 175.328125 108.796875 Z M 176.28125 108.601562 C 176.578125 108.542969 176.878906 108.484375 177.183594 108.429688 C 176.878906 108.484375 176.582031 108.542969 176.28125 108.601562 Z M 177.210938 108.425781 C 177.515625 108.367188 177.824219 108.316406 178.132812 108.261719 C 177.824219 108.316406 177.515625 108.367188 177.210938 108.425781 Z M 178.148438 108.261719 C 178.460938 108.210938 178.769531 108.160156 179.082031 108.113281 C 178.769531 108.160156 178.460938 108.210938 178.148438 108.261719 Z M 179.089844 108.113281 C 179.707031 108.019531 180.328125 107.9375 180.949219 107.863281 C 180.328125 107.9375 179.707031 108.023438 179.089844 108.113281 Z M 181.003906 107.855469 C 181.304688 107.820312 181.605469 107.789062 181.90625 107.757812 C 181.605469 107.789062 181.304688 107.820312 181.003906 107.855469 Z M 181.941406 107.753906 C 182.246094 107.722656 182.550781 107.695312 182.851562 107.667969 C 182.550781 107.695312 182.246094 107.722656 181.941406 107.753906 Z M 182.925781 107.660156 C 183.230469 107.636719 183.53125 107.613281 183.832031 107.589844 C 183.53125 107.609375 183.230469 107.636719 182.925781 107.660156 Z M 183.84375 107.589844 C 184.152344 107.570312 184.457031 107.550781 184.765625 107.53125 C 184.457031 107.550781 184.152344 107.570312 183.84375 107.589844 Z M 183.84375 107.589844 " fill-opacity="1" fill-rule="evenodd"/></g><g fill="#050a30" fill-opacity="1"><g transform="translate(95.046208, 262.092259)"><g><path d="M 17.023438 0 L 23.558594 0 L 23.558594 -8.167969 L 24.867188 -8.167969 L 24.867188 -11.664062 L 14.019531 -11.664062 L 14.019531 -8.167969 L 16.011719 -8.167969 L 16.011719 -6.796875 C 15.523438 -5.949219 14.738281 -5.195312 12.875 -5.195312 C 10.03125 -5.195312 8.398438 -7.875 8.398438 -11.207031 C 8.398438 -14.476562 10.226562 -17.351562 12.875 -17.351562 C 14.804688 -17.351562 16.503906 -15.847656 16.601562 -13.203125 L 22.449219 -13.203125 L 22.449219 -22.839844 L 17.582031 -22.839844 L 16.894531 -20.488281 C 16.371094 -21.011719 15.261719 -23.234375 10.523438 -23.234375 C 5.425781 -23.234375 0.488281 -18.332031 0.488281 -11.207031 C 0.488281 -4.148438 5.03125 0.292969 10.75 0.292969 C 13.265625 0.292969 15.292969 -0.851562 16.011719 -2.058594 Z M 17.023438 0 "/></g></g></g><g fill="#050a30" fill-opacity="1"><g transform="translate(120.399528, 262.092259)"><g><path d="M 0.816406 -22.839844 L 0.816406 -18.527344 L 2.613281 -18.527344 L 2.613281 -4.347656 L 0.816406 -4.347656 L 0.816406 0 L 19.117188 0 L 19.117188 -8.496094 L 13.625 -8.496094 L 13.625 -4.347656 L 9.410156 -4.347656 L 9.410156 -18.527344 L 11.144531 -18.527344 L 11.144531 -22.839844 Z M 0.816406 -22.839844 "/></g></g></g><g fill="#050a30" fill-opacity="1"><g transform="translate(140.329332, 262.092259)"><g><path d="M 0.816406 -22.839844 L 0.816406 -18.527344 L 2.875 -18.527344 L 2.875 -4.347656 L 0.816406 -4.347656 L 0.816406 0 L 11.664062 0 L 11.664062 -4.347656 L 9.640625 -4.347656 L 9.640625 -18.527344 L 11.664062 -18.527344 L 11.664062 -22.839844 Z M 0.816406 -22.839844 "/></g></g></g><g fill="#050a30" fill-opacity="1"><g transform="translate(152.80996, 262.092259)"><g><path d="M 23.625 -17.089844 L 23.625 -4.25 L 21.796875 -4.25 L 21.796875 0 L 32.121094 0 L 32.121094 -4.25 L 30.324219 -4.25 L 30.324219 -18.625 L 32.121094 -18.625 L 32.121094 -22.839844 L 19.671875 -22.839844 L 16.535156 -10.621094 L 13.234375 -22.839844 L 0.851562 -22.839844 L 0.851562 -18.625 L 2.582031 -18.625 L 2.582031 -4.214844 L 0.816406 -4.214844 L 0.816406 0 L 9.671875 0 L 9.671875 -4.214844 L 7.808594 -4.214844 L 7.808594 -17.089844 L 7.941406 -17.089844 C 8.039062 -15.457031 8.464844 -13.59375 8.625 -13.039062 L 12.285156 0 L 19.117188 0 L 22.546875 -12.710938 C 22.777344 -13.464844 23.234375 -15.621094 23.496094 -17.089844 Z M 23.625 -17.089844 "/></g></g></g><g fill="#050a30" fill-opacity="1"><g transform="translate(185.743147, 262.092259)"><g><path d="M 0.816406 -22.839844 L 0.816406 -18.5625 L 2.648438 -18.5625 L 2.648438 -4.3125 L 0.816406 -4.3125 L 0.816406 0 L 11.339844 0 L 11.339844 -4.3125 L 9.347656 -4.3125 L 9.347656 -9.378906 L 11.828125 -9.378906 C 16.503906 -9.378906 20.421875 -11.535156 20.421875 -15.847656 C 20.421875 -19.574219 18.984375 -22.839844 11.40625 -22.839844 Z M 9.347656 -18.59375 L 10.980469 -18.59375 C 12.875 -18.59375 14.019531 -17.546875 14.019531 -15.621094 C 14.019531 -13.886719 12.710938 -12.90625 10.816406 -12.90625 L 9.347656 -12.90625 Z M 9.347656 -18.59375 "/></g></g></g><g fill="#050a30" fill-opacity="1"><g transform="translate(206.653104, 262.092259)"><g><path d="M 26.402344 0 L 26.402344 -4.28125 L 24.117188 -4.28125 L 18.332031 -22.839844 L 5.785156 -22.839844 L 5.785156 -18.625 L 7.125 -18.625 L 2.710938 -4.28125 L 0.488281 -4.28125 L 0.488281 0 L 10.882812 0 L 10.882812 -4.28125 L 8.332031 -4.28125 L 9.019531 -6.503906 L 15.71875 -6.503906 L 16.402344 -4.28125 L 13.300781 -4.28125 L 13.300781 0 Z M 10.226562 -10.425781 L 12.351562 -17.484375 L 14.507812 -10.425781 Z M 10.226562 -10.425781 "/></g></g></g><g fill="#050a30" fill-opacity="1"><g transform="translate(233.542003, 262.092259)"><g><path d="M 0.816406 0 L 6.535156 0 L 6.894531 -2.515625 C 8.136719 -1.046875 10.425781 0.488281 13.722656 0.488281 C 17.613281 0.488281 22.382812 -1.339844 22.382812 -6.4375 C 22.382812 -14.117188 9.445312 -13.332031 9.445312 -16.699219 C 9.445312 -17.84375 10.75 -18.429688 11.699219 -18.429688 C 13.984375 -18.429688 15.882812 -17.058594 15.882812 -14.640625 L 21.796875 -14.640625 L 21.796875 -22.839844 L 16.175781 -22.839844 L 15.847656 -20.097656 C 14.542969 -22.546875 11.765625 -23.429688 9.019531 -23.429688 C 5.816406 -23.429688 1.242188 -21.242188 1.242188 -16.402344 C 1.242188 -8.070312 13.789062 -9.148438 13.789062 -6.601562 C 13.789062 -5.226562 12.15625 -4.96875 11.011719 -4.96875 C 9.640625 -5.03125 6.894531 -5.488281 6.894531 -8.234375 L 0.816406 -8.234375 Z M 0.816406 0 "/></g></g></g><g fill="#050a30" fill-opacity="1"><g transform="translate(256.738981, 262.092259)"><g><path d="M 0.816406 0 L 6.535156 0 L 6.894531 -2.515625 C 8.136719 -1.046875 10.425781 0.488281 13.722656 0.488281 C 17.613281 0.488281 22.382812 -1.339844 22.382812 -6.4375 C 22.382812 -14.117188 9.445312 -13.332031 9.445312 -16.699219 C 9.445312 -17.84375 10.75 -18.429688 11.699219 -18.429688 C 13.984375 -18.429688 15.882812 -17.058594 15.882812 -14.640625 L 21.796875 -14.640625 L 21.796875 -22.839844 L 16.175781 -22.839844 L 15.847656 -20.097656 C 14.542969 -22.546875 11.765625 -23.429688 9.019531 -23.429688 C 5.816406 -23.429688 1.242188 -21.242188 1.242188 -16.402344 C 1.242188 -8.070312 13.789062 -9.148438 13.789062 -6.601562 C 13.789062 -5.226562 12.15625 -4.96875 11.011719 -4.96875 C 9.640625 -5.03125 6.894531 -5.488281 6.894531 -8.234375 L 0.816406 -8.234375 Z M 0.816406 0 "/></g></g></g><g fill="#72a3ab" fill-opacity="1"><g transform="translate(124.669673, 280.022689)"><g><path d="M 0.359375 -5.390625 L 3.71875 -5.390625 L 3.71875 -4.34375 L 1.515625 -4.34375 L 1.515625 -3.359375 L 3.453125 -3.359375 L 3.453125 -2.3125 L 1.515625 -2.3125 L 1.515625 0 L 0.359375 0 Z M 0.359375 -5.390625 "/></g></g></g><g fill="#72a3ab" fill-opacity="1"><g transform="translate(130.77972, 280.022689)"><g><path d="M 2.90625 -5.453125 C 3.269531 -5.453125 3.613281 -5.378906 3.9375 -5.234375 C 4.257812 -5.085938 4.539062 -4.890625 4.78125 -4.640625 C 5.019531 -4.390625 5.207031 -4.09375 5.34375 -3.75 C 5.488281 -3.414062 5.5625 -3.0625 5.5625 -2.6875 C 5.5625 -2.3125 5.488281 -1.953125 5.34375 -1.609375 C 5.207031 -1.273438 5.019531 -0.976562 4.78125 -0.71875 C 4.539062 -0.46875 4.257812 -0.269531 3.9375 -0.125 C 3.613281 0.0195312 3.269531 0.09375 2.90625 0.09375 C 2.539062 0.09375 2.191406 0.0195312 1.859375 -0.125 C 1.535156 -0.269531 1.253906 -0.46875 1.015625 -0.71875 C 0.785156 -0.976562 0.597656 -1.273438 0.453125 -1.609375 C 0.316406 -1.953125 0.25 -2.3125 0.25 -2.6875 C 0.25 -3.0625 0.316406 -3.414062 0.453125 -3.75 C 0.597656 -4.09375 0.785156 -4.390625 1.015625 -4.640625 C 1.253906 -4.890625 1.535156 -5.085938 1.859375 -5.234375 C 2.191406 -5.378906 2.539062 -5.453125 2.90625 -5.453125 Z M 2.90625 -1.046875 C 3.113281 -1.046875 3.304688 -1.085938 3.484375 -1.171875 C 3.671875 -1.265625 3.832031 -1.382812 3.96875 -1.53125 C 4.101562 -1.675781 4.207031 -1.847656 4.28125 -2.046875 C 4.363281 -2.242188 4.40625 -2.457031 4.40625 -2.6875 C 4.40625 -2.914062 4.363281 -3.128906 4.28125 -3.328125 C 4.207031 -3.523438 4.101562 -3.695312 3.96875 -3.84375 C 3.832031 -4 3.671875 -4.117188 3.484375 -4.203125 C 3.304688 -4.296875 3.113281 -4.34375 2.90625 -4.34375 C 2.695312 -4.34375 2.5 -4.296875 2.3125 -4.203125 C 2.132812 -4.117188 1.972656 -4 1.828125 -3.84375 C 1.691406 -3.695312 1.582031 -3.523438 1.5 -3.328125 C 1.425781 -3.128906 1.390625 -2.914062 1.390625 -2.6875 C 1.390625 -2.457031 1.425781 -2.242188 1.5 -2.046875 C 1.582031 -1.847656 1.691406 -1.675781 1.828125 -1.53125 C 1.972656 -1.382812 2.132812 -1.265625 2.3125 -1.171875 C 2.5 -1.085938 2.695312 -1.046875 2.90625 -1.046875 Z M 2.90625 -1.046875 "/></g></g></g><g fill="#72a3ab" fill-opacity="1"><g transform="translate(138.878388, 280.022689)"><g><path d="M 1.515625 -1.046875 L 3.71875 -1.046875 L 3.71875 0 L 0.359375 0 L 0.359375 -5.390625 L 1.515625 -5.390625 Z M 1.515625 -1.046875 "/></g></g></g><g fill="#72a3ab" fill-opacity="1"><g transform="translate(144.965668, 280.022689)"><g><path d="M 1.515625 -1.046875 L 3.71875 -1.046875 L 3.71875 0 L 0.359375 0 L 0.359375 -5.390625 L 1.515625 -5.390625 Z M 1.515625 -1.046875 "/></g></g></g><g fill="#72a3ab" fill-opacity="1"><g transform="translate(151.052949, 280.022689)"><g><path d="M 2.90625 -5.453125 C 3.269531 -5.453125 3.613281 -5.378906 3.9375 -5.234375 C 4.257812 -5.085938 4.539062 -4.890625 4.78125 -4.640625 C 5.019531 -4.390625 5.207031 -4.09375 5.34375 -3.75 C 5.488281 -3.414062 5.5625 -3.0625 5.5625 -2.6875 C 5.5625 -2.3125 5.488281 -1.953125 5.34375 -1.609375 C 5.207031 -1.273438 5.019531 -0.976562 4.78125 -0.71875 C 4.539062 -0.46875 4.257812 -0.269531 3.9375 -0.125 C 3.613281 0.0195312 3.269531 0.09375 2.90625 0.09375 C 2.539062 0.09375 2.191406 0.0195312 1.859375 -0.125 C 1.535156 -0.269531 1.253906 -0.46875 1.015625 -0.71875 C 0.785156 -0.976562 0.597656 -1.273438 0.453125 -1.609375 C 0.316406 -1.953125 0.25 -2.3125 0.25 -2.6875 C 0.25 -3.0625 0.316406 -3.414062 0.453125 -3.75 C 0.597656 -4.09375 0.785156 -4.390625 1.015625 -4.640625 C 1.253906 -4.890625 1.535156 -5.085938 1.859375 -5.234375 C 2.191406 -5.378906 2.539062 -5.453125 2.90625 -5.453125 Z M 2.90625 -1.046875 C 3.113281 -1.046875 3.304688 -1.085938 3.484375 -1.171875 C 3.671875 -1.265625 3.832031 -1.382812 3.96875 -1.53125 C 4.101562 -1.675781 4.207031 -1.847656 4.28125 -2.046875 C 4.363281 -2.242188 4.40625 -2.457031 4.40625 -2.6875 C 4.40625 -2.914062 4.363281 -3.128906 4.28125 -3.328125 C 4.207031 -3.523438 4.101562 -3.695312 3.96875 -3.84375 C 3.832031 -4 3.671875 -4.117188 3.484375 -4.203125 C 3.304688 -4.296875 3.113281 -4.34375 2.90625 -4.34375 C 2.695312 -4.34375 2.5 -4.296875 2.3125 -4.203125 C 2.132812 -4.117188 1.972656 -4 1.828125 -3.84375 C 1.691406 -3.695312 1.582031 -3.523438 1.5 -3.328125 C 1.425781 -3.128906 1.390625 -2.914062 1.390625 -2.6875 C 1.390625 -2.457031 1.425781 -2.242188 1.5 -2.046875 C 1.582031 -1.847656 1.691406 -1.675781 1.828125 -1.53125 C 1.972656 -1.382812 2.132812 -1.265625 2.3125 -1.171875 C 2.5 -1.085938 2.695312 -1.046875 2.90625 -1.046875 Z M 2.90625 -1.046875 "/></g></g></g><g fill="#72a3ab" fill-opacity="1"><g transform="translate(159.151617, 280.022689)"><g><path d="M 7.015625 -5.390625 L 8.203125 -5.390625 L 6.6875 0 L 5.265625 0 L 4.15625 -3.625 L 3.046875 0 L 1.625 0 L 0.109375 -5.390625 L 1.3125 -5.390625 L 2.375 -1.3125 L 3.59375 -5.390625 L 4.703125 -5.390625 L 5.9375 -1.28125 Z M 7.015625 -5.390625 "/></g></g></g><g fill="#72a3ab" fill-opacity="1"><g transform="translate(169.777795, 280.022689)"><g/></g></g><g fill="#72a3ab" fill-opacity="1"><g transform="translate(174.157288, 280.022689)"><g><path d="M 0.171875 -5.390625 L 4.0625 -5.390625 L 4.0625 -4.34375 L 2.703125 -4.34375 L 2.703125 0 L 1.546875 0 L 1.546875 -4.34375 L 0.171875 -4.34375 Z M 0.171875 -5.390625 "/></g></g></g><g fill="#72a3ab" fill-opacity="1"><g transform="translate(180.692389, 280.022689)"><g><path d="M 3.96875 -5.390625 L 5.125 -5.390625 L 5.125 0 L 3.96875 0 L 3.96875 -2.3125 L 1.5 -2.3125 L 1.5 0 L 0.359375 0 L 0.359375 -5.390625 L 1.5 -5.390625 L 1.5 -3.359375 L 3.96875 -3.359375 Z M 3.96875 -5.390625 "/></g></g></g><g fill="#72a3ab" fill-opacity="1"><g transform="translate(188.464679, 280.022689)"><g><path d="M 0.359375 -5.390625 L 3.734375 -5.390625 L 3.734375 -4.34375 L 1.515625 -4.34375 L 1.515625 -3.359375 L 3.46875 -3.359375 L 3.46875 -2.3125 L 1.515625 -2.3125 L 1.515625 -1.046875 L 3.734375 -1.046875 L 3.734375 0 L 0.359375 0 Z M 0.359375 -5.390625 "/></g></g></g><g fill="#72a3ab" fill-opacity="1"><g transform="translate(194.847974, 280.022689)"><g/></g></g><g fill="#72a3ab" fill-opacity="1"><g transform="translate(199.227467, 280.022689)"><g><path d="M 2.890625 -1.046875 C 3.128906 -1.046875 3.363281 -1.097656 3.59375 -1.203125 C 3.832031 -1.316406 4.070312 -1.507812 4.3125 -1.78125 L 5.0625 -1.078125 C 4.757812 -0.691406 4.414062 -0.398438 4.03125 -0.203125 C 3.65625 -0.00390625 3.265625 0.09375 2.859375 0.09375 C 2.492188 0.09375 2.148438 0.0195312 1.828125 -0.125 C 1.515625 -0.269531 1.238281 -0.46875 1 -0.71875 C 0.757812 -0.976562 0.570312 -1.273438 0.4375 -1.609375 C 0.3125 -1.953125 0.25 -2.3125 0.25 -2.6875 C 0.25 -3.0625 0.316406 -3.414062 0.453125 -3.75 C 0.585938 -4.09375 0.773438 -4.390625 1.015625 -4.640625 C 1.253906 -4.890625 1.535156 -5.085938 1.859375 -5.234375 C 2.179688 -5.378906 2.523438 -5.453125 2.890625 -5.453125 C 3.234375 -5.453125 3.554688 -5.390625 3.859375 -5.265625 C 4.171875 -5.140625 4.472656 -4.929688 4.765625 -4.640625 L 4.09375 -3.828125 C 3.882812 -4.023438 3.679688 -4.15625 3.484375 -4.21875 C 3.296875 -4.289062 3.097656 -4.328125 2.890625 -4.328125 C 2.679688 -4.328125 2.484375 -4.28125 2.296875 -4.1875 C 2.117188 -4.101562 1.960938 -3.988281 1.828125 -3.84375 C 1.691406 -3.695312 1.582031 -3.523438 1.5 -3.328125 C 1.414062 -3.128906 1.375 -2.914062 1.375 -2.6875 C 1.375 -2.457031 1.414062 -2.242188 1.5 -2.046875 C 1.582031 -1.847656 1.691406 -1.675781 1.828125 -1.53125 C 1.960938 -1.382812 2.117188 -1.265625 2.296875 -1.171875 C 2.484375 -1.085938 2.679688 -1.046875 2.890625 -1.046875 Z M 2.890625 -1.046875 "/></g></g></g><g fill="#72a3ab" fill-opacity="1"><g transform="translate(206.794821, 280.022689)"><g><path d="M 2.90625 -5.453125 C 3.269531 -5.453125 3.613281 -5.378906 3.9375 -5.234375 C 4.257812 -5.085938 4.539062 -4.890625 4.78125 -4.640625 C 5.019531 -4.390625 5.207031 -4.09375 5.34375 -3.75 C 5.488281 -3.414062 5.5625 -3.0625 5.5625 -2.6875 C 5.5625 -2.3125 5.488281 -1.953125 5.34375 -1.609375 C 5.207031 -1.273438 5.019531 -0.976562 4.78125 -0.71875 C 4.539062 -0.46875 4.257812 -0.269531 3.9375 -0.125 C 3.613281 0.0195312 3.269531 0.09375 2.90625 0.09375 C 2.539062 0.09375 2.191406 0.0195312 1.859375 -0.125 C 1.535156 -0.269531 1.253906 -0.46875 1.015625 -0.71875 C 0.785156 -0.976562 0.597656 -1.273438 0.453125 -1.609375 C 0.316406 -1.953125 0.25 -2.3125 0.25 -2.6875 C 0.25 -3.0625 0.316406 -3.414062 0.453125 -3.75 C 0.597656 -4.09375 0.785156 -4.390625 1.015625 -4.640625 C 1.253906 -4.890625 1.535156 -5.085938 1.859375 -5.234375 C 2.191406 -5.378906 2.539062 -5.453125 2.90625 -5.453125 Z M 2.90625 -1.046875 C 3.113281 -1.046875 3.304688 -1.085938 3.484375 -1.171875 C 3.671875 -1.265625 3.832031 -1.382812 3.96875 -1.53125 C 4.101562 -1.675781 4.207031 -1.847656 4.28125 -2.046875 C 4.363281 -2.242188 4.40625 -2.457031 4.40625 -2.6875 C 4.40625 -2.914062 4.363281 -3.128906 4.28125 -3.328125 C 4.207031 -3.523438 4.101562 -3.695312 3.96875 -3.84375 C 3.832031 -4 3.671875 -4.117188 3.484375 -4.203125 C 3.304688 -4.296875 3.113281 -4.34375 2.90625 -4.34375 C 2.695312 -4.34375 2.5 -4.296875 2.3125 -4.203125 C 2.132812 -4.117188 1.972656 -4 1.828125 -3.84375 C 1.691406 -3.695312 1.582031 -3.523438 1.5 -3.328125 C 1.425781 -3.128906 1.390625 -2.914062 1.390625 -2.6875 C 1.390625 -2.457031 1.425781 -2.242188 1.5 -2.046875 C 1.582031 -1.847656 1.691406 -1.675781 1.828125 -1.53125 C 1.972656 -1.382812 2.132812 -1.265625 2.3125 -1.171875 C 2.5 -1.085938 2.695312 -1.046875 2.90625 -1.046875 Z M 2.90625 -1.046875 "/></g></g></g><g fill="#72a3ab" fill-opacity="1"><g transform="translate(214.893485, 280.022689)"><g><path d="M 5.078125 -5.390625 L 6.15625 -5.390625 L 6.15625 0 L 5.015625 0 L 5.015625 -3.546875 L 3.734375 -1.75 L 2.8125 -1.75 L 1.515625 -3.5 L 1.515625 0 L 0.359375 0 L 0.359375 -5.390625 L 1.453125 -5.390625 L 3.265625 -2.90625 Z M 5.078125 -5.390625 "/></g></g></g><g fill="#72a3ab" fill-opacity="1"><g transform="translate(223.698034, 280.022689)"><g><path d="M 2.6875 -5.390625 C 2.894531 -5.390625 3.09375 -5.347656 3.28125 -5.265625 C 3.46875 -5.179688 3.628906 -5.066406 3.765625 -4.921875 C 3.910156 -4.773438 4.019531 -4.601562 4.09375 -4.40625 C 4.175781 -4.207031 4.21875 -4 4.21875 -3.78125 C 4.21875 -3.5625 4.175781 -3.351562 4.09375 -3.15625 C 4.019531 -2.957031 3.910156 -2.785156 3.765625 -2.640625 C 3.628906 -2.492188 3.46875 -2.378906 3.28125 -2.296875 C 3.09375 -2.210938 2.894531 -2.171875 2.6875 -2.171875 L 1.5 -2.171875 L 1.5 0 L 0.359375 0 L 0.359375 -5.390625 Z M 2.53125 -3.21875 C 2.675781 -3.21875 2.800781 -3.269531 2.90625 -3.375 C 3.019531 -3.488281 3.078125 -3.625 3.078125 -3.78125 C 3.078125 -3.9375 3.019531 -4.066406 2.90625 -4.171875 C 2.800781 -4.285156 2.675781 -4.34375 2.53125 -4.34375 L 1.5 -4.34375 L 1.5 -3.21875 Z M 2.53125 -3.21875 "/></g></g></g><g fill="#72a3ab" fill-opacity="1"><g transform="translate(230.301451, 280.022689)"><g><path d="M 3.671875 -5.390625 L 5.921875 0 L 4.671875 0 L 4.1875 -1.15625 L 1.890625 -1.15625 L 1.421875 0 L 0.171875 0 L 2.421875 -5.390625 Z M 3.75 -2.203125 L 3.046875 -3.890625 L 2.34375 -2.203125 Z M 3.75 -2.203125 "/></g></g></g><g fill="#72a3ab" fill-opacity="1"><g transform="translate(238.673352, 280.022689)"><g><path d="M 3.78125 -2.765625 C 3.988281 -2.640625 4.148438 -2.476562 4.265625 -2.28125 C 4.378906 -2.082031 4.4375 -1.859375 4.4375 -1.609375 C 4.4375 -1.359375 4.375 -1.128906 4.25 -0.921875 C 4.132812 -0.710938 3.972656 -0.523438 3.765625 -0.359375 C 3.578125 -0.210938 3.359375 -0.0976562 3.109375 -0.015625 C 2.859375 0.0546875 2.597656 0.09375 2.328125 0.09375 C 2.054688 0.09375 1.796875 0.0546875 1.546875 -0.015625 C 1.296875 -0.0859375 1.078125 -0.203125 0.890625 -0.359375 C 0.597656 -0.578125 0.398438 -0.835938 0.296875 -1.140625 L 1.359375 -1.640625 C 1.359375 -1.585938 1.375 -1.523438 1.40625 -1.453125 C 1.445312 -1.378906 1.503906 -1.304688 1.578125 -1.234375 C 1.648438 -1.160156 1.75 -1.097656 1.875 -1.046875 C 2 -0.992188 2.148438 -0.96875 2.328125 -0.96875 C 2.460938 -0.96875 2.582031 -0.984375 2.6875 -1.015625 C 2.800781 -1.054688 2.894531 -1.101562 2.96875 -1.15625 C 3.039062 -1.207031 3.097656 -1.265625 3.140625 -1.328125 C 3.179688 -1.398438 3.203125 -1.472656 3.203125 -1.546875 C 3.203125 -1.628906 3.171875 -1.707031 3.109375 -1.78125 C 3.054688 -1.851562 2.976562 -1.90625 2.875 -1.9375 C 2.664062 -2.007812 2.445312 -2.066406 2.21875 -2.109375 C 2 -2.160156 1.78125 -2.222656 1.5625 -2.296875 C 1.351562 -2.378906 1.15625 -2.476562 0.96875 -2.59375 C 0.789062 -2.71875 0.648438 -2.890625 0.546875 -3.109375 C 0.453125 -3.296875 0.40625 -3.5 0.40625 -3.71875 C 0.40625 -3.957031 0.460938 -4.191406 0.578125 -4.421875 C 0.691406 -4.648438 0.847656 -4.84375 1.046875 -5 C 1.234375 -5.144531 1.441406 -5.253906 1.671875 -5.328125 C 1.898438 -5.410156 2.144531 -5.453125 2.40625 -5.453125 C 2.664062 -5.453125 2.910156 -5.414062 3.140625 -5.34375 C 3.378906 -5.269531 3.59375 -5.160156 3.78125 -5.015625 C 3.96875 -4.878906 4.113281 -4.71875 4.21875 -4.53125 L 3.34375 -3.9375 C 3.238281 -4.082031 3.101562 -4.195312 2.9375 -4.28125 C 2.78125 -4.375 2.609375 -4.421875 2.421875 -4.421875 C 2.140625 -4.421875 1.925781 -4.359375 1.78125 -4.234375 C 1.632812 -4.117188 1.5625 -3.960938 1.5625 -3.765625 C 1.5625 -3.671875 1.601562 -3.585938 1.6875 -3.515625 C 1.769531 -3.453125 1.875 -3.390625 2 -3.328125 C 2.132812 -3.273438 2.285156 -3.226562 2.453125 -3.1875 C 2.617188 -3.144531 2.785156 -3.097656 2.953125 -3.046875 C 3.117188 -3.003906 3.273438 -2.960938 3.421875 -2.921875 C 3.566406 -2.878906 3.6875 -2.828125 3.78125 -2.765625 Z M 3.78125 -2.765625 "/></g></g></g><g fill="#72a3ab" fill-opacity="1"><g transform="translate(245.641087, 280.022689)"><g><path d="M 3.78125 -2.765625 C 3.988281 -2.640625 4.148438 -2.476562 4.265625 -2.28125 C 4.378906 -2.082031 4.4375 -1.859375 4.4375 -1.609375 C 4.4375 -1.359375 4.375 -1.128906 4.25 -0.921875 C 4.132812 -0.710938 3.972656 -0.523438 3.765625 -0.359375 C 3.578125 -0.210938 3.359375 -0.0976562 3.109375 -0.015625 C 2.859375 0.0546875 2.597656 0.09375 2.328125 0.09375 C 2.054688 0.09375 1.796875 0.0546875 1.546875 -0.015625 C 1.296875 -0.0859375 1.078125 -0.203125 0.890625 -0.359375 C 0.597656 -0.578125 0.398438 -0.835938 0.296875 -1.140625 L 1.359375 -1.640625 C 1.359375 -1.585938 1.375 -1.523438 1.40625 -1.453125 C 1.445312 -1.378906 1.503906 -1.304688 1.578125 -1.234375 C 1.648438 -1.160156 1.75 -1.097656 1.875 -1.046875 C 2 -0.992188 2.148438 -0.96875 2.328125 -0.96875 C 2.460938 -0.96875 2.582031 -0.984375 2.6875 -1.015625 C 2.800781 -1.054688 2.894531 -1.101562 2.96875 -1.15625 C 3.039062 -1.207031 3.097656 -1.265625 3.140625 -1.328125 C 3.179688 -1.398438 3.203125 -1.472656 3.203125 -1.546875 C 3.203125 -1.628906 3.171875 -1.707031 3.109375 -1.78125 C 3.054688 -1.851562 2.976562 -1.90625 2.875 -1.9375 C 2.664062 -2.007812 2.445312 -2.066406 2.21875 -2.109375 C 2 -2.160156 1.78125 -2.222656 1.5625 -2.296875 C 1.351562 -2.378906 1.15625 -2.476562 0.96875 -2.59375 C 0.789062 -2.71875 0.648438 -2.890625 0.546875 -3.109375 C 0.453125 -3.296875 0.40625 -3.5 0.40625 -3.71875 C 0.40625 -3.957031 0.460938 -4.191406 0.578125 -4.421875 C 0.691406 -4.648438 0.847656 -4.84375 1.046875 -5 C 1.234375 -5.144531 1.441406 -5.253906 1.671875 -5.328125 C 1.898438 -5.410156 2.144531 -5.453125 2.40625 -5.453125 C 2.664062 -5.453125 2.910156 -5.414062 3.140625 -5.34375 C 3.378906 -5.269531 3.59375 -5.160156 3.78125 -5.015625 C 3.96875 -4.878906 4.113281 -4.71875 4.21875 -4.53125 L 3.34375 -3.9375 C 3.238281 -4.082031 3.101562 -4.195312 2.9375 -4.28125 C 2.78125 -4.375 2.609375 -4.421875 2.421875 -4.421875 C 2.140625 -4.421875 1.925781 -4.359375 1.78125 -4.234375 C 1.632812 -4.117188 1.5625 -3.960938 1.5625 -3.765625 C 1.5625 -3.671875 1.601562 -3.585938 1.6875 -3.515625 C 1.769531 -3.453125 1.875 -3.390625 2 -3.328125 C 2.132812 -3.273438 2.285156 -3.226562 2.453125 -3.1875 C 2.617188 -3.144531 2.785156 -3.097656 2.953125 -3.046875 C 3.117188 -3.003906 3.273438 -2.960938 3.421875 -2.921875 C 3.566406 -2.878906 3.6875 -2.828125 3.78125 -2.765625 Z M 3.78125 -2.765625 "/></g></g></g></svg>